<?xml version="1.0" encoding="utf-8"?>
<!-- Generator: Adobe Illustrator 25.4.1, SVG Export Plug-In . SVG Version: 6.00 Build 0)  -->
<svg version="1.1" id="Layer_1" xmlns="http://www.w3.org/2000/svg" xmlns:xlink="http://www.w3.org/1999/xlink" x="0px" y="0px"
	 viewBox="0 0 32 32" style="enable-background:new 0 0 32 32;" xml:space="preserve">
<style type="text/css">
	.st0{fill:#3953A0;}
	.st1{fill:#E42528;}
	.st2{fill:#00A052;}
	.st3{fill:none;}
</style>
<g>
	<g>
		<g>
			<path class="st0" d="M21.01,12.96h-2.34c-0.2,0-0.36-0.16-0.36-0.36c0-0.2,0.16-0.36,0.36-0.36h1.99V9.1h-9.27v3.15h1.99
				c0.2,0,0.36,0.16,0.36,0.36c0,0.2-0.16,0.36-0.36,0.36h-2.34c-0.2,0-0.36-0.16-0.36-0.36V8.74c0-0.2,0.16-0.36,0.36-0.36h9.99
				c0.2,0,0.36,0.16,0.36,0.36v3.86C21.36,12.8,21.2,12.96,21.01,12.96z"/>
		</g>
	</g>
	<g>
		<g>
			<path class="st0" d="M18.65,8.16H13.4c-0.2,0-0.36-0.16-0.36-0.36V5.84c0-0.2,0.16-0.36,0.36-0.36h5.25
				c0.2,0,0.36,0.16,0.36,0.36V7.8C19.01,8,18.85,8.16,18.65,8.16z M13.76,7.45h4.53V6.2h-4.53V7.45z"/>
		</g>
	</g>
	<g>
		<g>
			<path class="st0" d="M16.01,21.03c-0.01,0-0.01,0-0.02,0c-0.1-0.01-0.19-0.05-0.25-0.13c-0.02-0.02-2.18-2.5-6.08-3
				c-0.15-0.02-0.27-0.13-0.3-0.28l-0.61-2.76c-0.04-0.16,0.04-0.32,0.19-0.4l6.92-3.55c0.1-0.05,0.22-0.05,0.33,0l6.94,3.56
				c0.15,0.07,0.22,0.24,0.19,0.4l-0.63,2.79c-0.03,0.14-0.14,0.24-0.28,0.27c-0.04,0.01-3.79,0.78-6.13,3
				C16.19,21,16.1,21.03,16.01,21.03z M10,17.23c3.3,0.5,5.35,2.26,6.03,2.95c2.16-1.88,5.14-2.69,5.99-2.89l0.52-2.29l-6.53-3.35
				L9.5,14.98L10,17.23z"/>
		</g>
	</g>
	<g>
		<g>
			<g>
				<path class="st1" d="M15.44,30.37c-0.01,0-0.01,0-0.02,0c-0.64-0.04-1.29-0.13-1.92-0.29c-3.03-0.73-5.73-2.81-7.4-5.68
					c-0.31-0.53-0.58-1.09-0.82-1.66c-0.04-0.1-0.03-0.21,0.01-0.3c0.05-0.09,0.14-0.16,0.24-0.18c0.61-0.14,1.24-0.21,1.87-0.21
					c4.47,0,8.15,3.49,8.39,7.94c0.01,0.1-0.03,0.2-0.1,0.27C15.63,30.34,15.53,30.37,15.44,30.37z M6.12,22.87
					c0.18,0.4,0.38,0.79,0.6,1.17c1.58,2.71,4.11,4.66,6.95,5.35c0.45,0.11,0.92,0.19,1.38,0.24c-0.42-3.88-3.7-6.86-7.65-6.86
					C6.97,22.77,6.54,22.8,6.12,22.87z"/>
			</g>
		</g>
		<g>
			<g>
				<path class="st1" d="M17.25,30.32c-0.08,0-0.17-0.03-0.23-0.09c-0.08-0.06-0.12-0.16-0.13-0.25c-0.25-5.06-4.42-9.03-9.49-9.03
					c-0.77,0-1.54,0.09-2.27,0.27c-0.19,0.05-0.38-0.07-0.43-0.26c-0.14-0.55-0.26-1.22-0.34-1.84c-0.02-0.18,0.09-0.34,0.26-0.39
					c0.98-0.25,1.99-0.38,3-0.38c3.29,0,6.46,1.38,8.7,3.8c0.46,0.5,0.89,1.04,1.26,1.61c0.36,0.56,0.68,1.15,0.95,1.77
					c0.33,0.76,0.58,1.56,0.74,2.38c0.11,0.54,0.18,1.1,0.21,1.66c0.01,0.16-0.09,0.31-0.24,0.36c-0.01,0-0.02,0.01-0.03,0.01
					c0,0-0.01,0-0.01,0l0,0c-0.08,0.02-0.15,0.05-0.23,0.07c-0.01,0-0.02,0.01-0.04,0.01l-0.01,0c-0.03,0.01-0.05,0.01-0.08,0.02
					c-0.03,0.01-0.07,0.02-0.1,0.03c-0.04,0.01-0.08,0.02-0.13,0.03c-0.05,0.01-0.1,0.02-0.15,0.04c-0.01,0-0.03,0.01-0.05,0.01
					c-0.04,0.01-0.07,0.02-0.11,0.02c-0.04,0.01-0.08,0.02-0.13,0.03c0,0-0.01,0-0.01,0c0,0-0.02,0-0.02,0
					c-0.04,0.01-0.09,0.02-0.13,0.02c-0.05,0.01-0.1,0.02-0.15,0.03c-0.05,0.01-0.1,0.02-0.15,0.02c-0.05,0.01-0.1,0.01-0.15,0.02
					c-0.03,0-0.06,0.01-0.09,0.01c-0.06,0.01-0.13,0.02-0.19,0.02C17.28,30.32,17.27,30.32,17.25,30.32z M7.4,20.24
					c5.33,0,9.73,4.07,10.18,9.33c0.01,0,0.02,0,0.03,0c0.05-0.01,0.09-0.01,0.14-0.02c0.05-0.01,0.09-0.02,0.14-0.02
					c0.04-0.01,0.08-0.02,0.12-0.02l0.02,0c0.04-0.01,0.08-0.02,0.12-0.02c0.03-0.01,0.06-0.01,0.09-0.02c0,0,0.01,0,0.01,0
					l0.04-0.01c0.05-0.01,0.1-0.02,0.15-0.03c0.04-0.01,0.08-0.02,0.12-0.03c0.03-0.01,0.06-0.02,0.09-0.02
					c0.03-0.01,0.05-0.01,0.07-0.02l0.02,0c-0.03-0.43-0.09-0.85-0.18-1.27c-0.15-0.76-0.38-1.52-0.69-2.23
					c-0.25-0.58-0.55-1.14-0.89-1.66c-0.35-0.54-0.75-1.05-1.18-1.52c-2.11-2.27-5.09-3.57-8.18-3.57c-0.85,0-1.7,0.1-2.52,0.29
					c0.05,0.37,0.12,0.75,0.2,1.1C6,20.31,6.7,20.24,7.4,20.24z"/>
			</g>
		</g>
		<g>
			<g>
				<path class="st1" d="M15.44,30.37c-0.01,0-0.01,0-0.02,0c-0.64-0.04-1.29-0.13-1.92-0.29c-3.03-0.73-5.73-2.81-7.4-5.68
					c-0.31-0.53-0.58-1.09-0.82-1.66c-0.04-0.1-0.03-0.21,0.01-0.3c0.05-0.09,0.14-0.16,0.24-0.18c0.61-0.14,1.24-0.21,1.87-0.21
					c4.47,0,8.15,3.49,8.39,7.94c0.01,0.1-0.03,0.2-0.1,0.27C15.63,30.34,15.53,30.37,15.44,30.37z M6.12,22.87
					c0.18,0.4,0.38,0.79,0.6,1.17c1.58,2.71,4.11,4.66,6.95,5.35c0.45,0.11,0.92,0.19,1.38,0.24c-0.42-3.88-3.7-6.86-7.65-6.86
					C6.97,22.77,6.54,22.8,6.12,22.87z"/>
			</g>
		</g>
		<g>
			<g>
				<path class="st1" d="M15.44,30.37c-0.01,0-0.01,0-0.02,0c-0.64-0.04-1.29-0.13-1.92-0.29c-3.03-0.73-5.73-2.81-7.4-5.68
					c-0.31-0.53-0.58-1.09-0.82-1.66c-0.04-0.1-0.03-0.21,0.01-0.3c0.05-0.09,0.14-0.16,0.24-0.18c0.61-0.14,1.24-0.21,1.87-0.21
					c4.47,0,8.15,3.49,8.39,7.94c0.01,0.1-0.03,0.2-0.1,0.27C15.63,30.34,15.53,30.37,15.44,30.37z M6.12,22.87
					c0.18,0.4,0.38,0.79,0.6,1.17c1.58,2.71,4.11,4.66,6.95,5.35c0.45,0.11,0.92,0.19,1.38,0.24c-0.42-3.88-3.7-6.86-7.65-6.86
					C6.97,22.77,6.54,22.8,6.12,22.87z"/>
			</g>
		</g>
		<g>
			<g>
				<path class="st1" d="M13.59,30.1c-0.03,0-0.06,0-0.08-0.01c-3.03-0.73-5.73-2.81-7.4-5.68c-0.06-0.11-0.06-0.23-0.01-0.34
					c0.06-0.11,0.16-0.18,0.28-0.19c0.22-0.02,0.44-0.03,0.66-0.03c3.44,0,6.34,2.46,6.9,5.84c0.02,0.12-0.02,0.24-0.11,0.32
					C13.76,30.06,13.67,30.1,13.59,30.1z M7.03,24.55c1.48,2.27,3.65,3.95,6.08,4.69C12.4,26.49,9.93,24.55,7.03,24.55
					C7.03,24.55,7.03,24.55,7.03,24.55z"/>
			</g>
		</g>
	</g>
	<g>
		<g>
			<g>
				<path class="st1" d="M16.07,30.39c-0.22,0-0.44-0.01-0.65-0.02c-0.64-0.04-1.29-0.13-1.92-0.29c-3.03-0.73-5.73-2.81-7.4-5.68
					c-0.31-0.53-0.58-1.09-0.82-1.66c-0.21-0.51-0.39-1.05-0.54-1.58c-0.02-0.06-0.03-0.13-0.05-0.19
					c-0.14-0.55-0.26-1.22-0.34-1.84c0-0.01,0-0.02,0-0.03c-0.02-0.2,0.12-0.37,0.32-0.39c0.2-0.02,0.37,0.12,0.39,0.32
					c0,0,0,0.01,0,0.01c0.07,0.59,0.19,1.23,0.32,1.75c0.02,0.06,0.03,0.12,0.05,0.18c0.14,0.51,0.31,1.01,0.51,1.5
					c0.22,0.54,0.48,1.07,0.77,1.57c1.58,2.71,4.11,4.66,6.95,5.35c0.59,0.14,1.19,0.23,1.79,0.27c0.57,0.04,1.17,0.02,1.75-0.05
					c0.06-0.01,0.12-0.01,0.18-0.02c0.03,0,0.05-0.01,0.08-0.01c0.05-0.01,0.09-0.01,0.14-0.02c0.05-0.01,0.09-0.01,0.14-0.02
					c0.05-0.01,0.09-0.02,0.14-0.02c0.04-0.01,0.08-0.02,0.12-0.02l0.02,0c0.04-0.01,0.08-0.02,0.12-0.02
					c0.03-0.01,0.06-0.01,0.09-0.02l0.06-0.01c0.05-0.01,0.1-0.02,0.15-0.03c0.04-0.01,0.08-0.02,0.12-0.03
					c0.03-0.01,0.06-0.02,0.09-0.02c0.03-0.01,0.05-0.01,0.07-0.02l0.03-0.01c0,0,0.01,0,0.01,0c0.07-0.02,0.14-0.04,0.21-0.06
					c0,0,0.01,0,0.01,0l0.01,0c2.54-0.77,4.74-2.51,6.23-4.9c0.32-0.52,0.61-1.08,0.86-1.65c0.23-0.54,0.43-1.1,0.59-1.67
					c0.13-0.49,0.24-0.99,0.32-1.5c-3.85-0.94-7.91,0.24-10.68,3.12c-0.14,0.14-0.36,0.15-0.51,0.01c-0.14-0.14-0.15-0.36-0.01-0.51
					c3-3.12,7.45-4.37,11.63-3.25c0,0,0.01,0,0.01,0c0.2,0.03,0.33,0.2,0.31,0.4c-0.08,0.65-0.21,1.3-0.38,1.92
					c-0.17,0.6-0.37,1.2-0.62,1.77c-0.26,0.6-0.56,1.19-0.91,1.74c-1.58,2.54-3.93,4.39-6.62,5.21c0,0-0.01,0-0.02,0.01
					c0,0-0.01,0-0.01,0l0,0c-0.08,0.02-0.15,0.05-0.23,0.07c-0.01,0-0.02,0.01-0.04,0.01l-0.01,0c-0.03,0.01-0.05,0.01-0.08,0.02
					c-0.03,0.01-0.07,0.02-0.1,0.03c-0.04,0.01-0.08,0.02-0.13,0.03c-0.05,0.01-0.1,0.02-0.15,0.04l-0.06,0.01
					c-0.03,0.01-0.06,0.01-0.1,0.02c-0.04,0.01-0.08,0.02-0.13,0.03c0,0-0.01,0-0.01,0c0,0-0.02,0-0.02,0
					c-0.04,0.01-0.09,0.02-0.13,0.02c-0.05,0.01-0.1,0.02-0.15,0.03c-0.05,0.01-0.1,0.02-0.15,0.02c-0.05,0.01-0.1,0.01-0.15,0.02
					c-0.03,0-0.06,0.01-0.09,0.01c-0.06,0.01-0.13,0.02-0.19,0.02C16.89,30.37,16.48,30.39,16.07,30.39z"/>
			</g>
		</g>
		<g>
			<g>
				<path class="st1" d="M17.29,24.31c-0.09,0-0.17-0.03-0.24-0.1c-0.14-0.13-0.15-0.36-0.02-0.51c2.57-2.78,6.44-3.91,10.09-2.94
					c0.19,0.05,0.31,0.25,0.25,0.44c-0.05,0.19-0.25,0.31-0.44,0.25c-3.4-0.89-7,0.16-9.39,2.74
					C17.48,24.27,17.39,24.31,17.29,24.31z"/>
			</g>
		</g>
		<g>
			<g>
				<path class="st1" d="M18.21,26.03c-0.08,0-0.16-0.03-0.22-0.08c-0.16-0.12-0.18-0.35-0.06-0.5c2.03-2.58,5.4-3.74,8.58-2.96
					c0.19,0.05,0.31,0.24,0.26,0.43c-0.05,0.19-0.24,0.31-0.43,0.26c-2.91-0.71-5.99,0.35-7.85,2.71
					C18.42,25.98,18.31,26.03,18.21,26.03z"/>
			</g>
		</g>
		<g>
			<g>
				<path class="st1" d="M18.92,28.33c-0.06,0-0.12-0.01-0.17-0.04c-0.17-0.09-0.24-0.31-0.15-0.48c1.35-2.51,4.15-3.97,6.98-3.63
					c0.2,0.02,0.34,0.2,0.31,0.4c-0.02,0.2-0.2,0.34-0.4,0.31c-2.54-0.3-5.05,1.01-6.26,3.26C19.18,28.26,19.05,28.33,18.92,28.33z"
					/>
			</g>
		</g>
	</g>
	<g>
		<g>
			<g>
				<path class="st2" d="M26.04,14.81c0.17,0.49,0.17,0.94-0.01,1.38c-0.03,0.06-0.05,0.07-0.11,0.04
					c-0.44-0.22-0.78-0.56-0.96-1.06c-0.09-0.25-0.13-0.51-0.13-0.77c0-0.33,0.02-0.66,0.04-0.99c0-0.09,0.02-0.09,0.09-0.03
					c0.36,0.34,0.69,0.7,0.94,1.14C25.95,14.63,26,14.73,26.04,14.81z"/>
			</g>
		</g>
		<g>
			<g>
				<path class="st2" d="M24.93,15.71c0.11,0.33,0.2,0.66,0.2,1c0.01,0.44-0.14,0.81-0.4,1.12c-0.06,0.07-0.07,0.07-0.14,0.01
					c-0.43-0.42-0.65-0.93-0.6-1.54c0.02-0.25,0.07-0.5,0.15-0.73c0.08-0.23,0.18-0.46,0.27-0.69c0.01-0.02,0.03-0.04,0.04-0.06
					c0.02,0.02,0.04,0.03,0.05,0.05C24.65,15.16,24.79,15.44,24.93,15.71z"/>
			</g>
		</g>
		<g>
			<g>
				<path class="st2" d="M26.19,9.35c0.02,0.1,0.06,0.26,0.08,0.42c0.02,0.1,0,0.11-0.09,0.12c-0.58,0.05-1.07-0.15-1.47-0.64
					c-0.24-0.29-0.41-0.62-0.56-0.97c-0.05-0.12-0.11-0.24-0.16-0.36c-0.03-0.07-0.01-0.08,0.05-0.07c0.48,0.12,0.96,0.27,1.39,0.55
					C25.77,8.62,26.02,8.91,26.19,9.35z"/>
			</g>
		</g>
		<g>
			<g>
				<path class="st2" d="M26.56,17.61c-0.4,0.14-0.75,0.14-1.09,0.02c-0.09-0.03-0.1-0.04-0.07-0.13c0.1-0.44,0.31-0.8,0.68-1.03
					c0.21-0.13,0.45-0.2,0.69-0.24c0.33-0.05,0.67-0.06,1.02-0.04c0.07,0,0.08,0.02,0.04,0.08c-0.26,0.44-0.55,0.87-0.96,1.17
					C26.76,17.5,26.63,17.57,26.56,17.61z"/>
			</g>
		</g>
		<g>
			<g>
				<path class="st2" d="M26.35,6.9c0.13,0.35,0.19,0.7,0.13,1.06c-0.04,0.23-0.12,0.45-0.24,0.64c-0.06,0.1-0.06,0.1-0.17,0.02
					c-0.49-0.37-0.75-0.86-0.77-1.48C25.3,6.74,25.37,6.37,25.46,6c0.02-0.1,0.05-0.19,0.08-0.29c0.02-0.09,0.04-0.09,0.09-0.02
					c0.2,0.26,0.38,0.54,0.54,0.84C26.24,6.65,26.29,6.78,26.35,6.9z"/>
			</g>
		</g>
		<g>
			<g>
				<path class="st2" d="M24.65,7.64c-0.47,0.15-0.92,0.08-1.34-0.21c-0.1-0.07-0.19-0.14-0.28-0.22c-0.3-0.27-0.54-0.59-0.78-0.91
					c-0.05-0.07-0.05-0.09,0.02-0.09c0.49-0.02,0.98-0.01,1.46,0.15c0.43,0.15,0.77,0.43,1,0.85c0.04,0.08,0.07,0.17,0.11,0.25
					c0.03,0.07,0.01,0.11-0.05,0.14C24.75,7.61,24.7,7.63,24.65,7.64z"/>
			</g>
		</g>
		<g>
			<g>
				<path class="st2" d="M24.8,9.69c0.32,0.15,0.61,0.31,0.88,0.51c0.25,0.18,0.48,0.4,0.67,0.66c0.26,0.38,0.35,0.8,0.31,1.24
					c-0.01,0.07-0.02,0.09-0.09,0.08c-0.61-0.09-1.06-0.42-1.36-1.02c-0.22-0.44-0.31-0.9-0.4-1.37C24.81,9.77,24.81,9.74,24.8,9.69
					z"/>
			</g>
		</g>
		<g>
			<g>
				<path class="st2" d="M26.56,10.22c-0.16-0.42-0.14-0.83-0.01-1.23c0.15-0.45,0.41-0.83,0.68-1.2c0.05-0.07,0.07-0.07,0.1,0.03
					c0.06,0.18,0.11,0.36,0.16,0.55c0.09,0.36,0.15,0.72,0.12,1.09c-0.03,0.52-0.24,0.93-0.63,1.23c-0.1,0.08-0.12,0.08-0.19-0.04
					C26.71,10.5,26.63,10.36,26.56,10.22z"/>
			</g>
		</g>
		<g>
			<g>
				<path class="st2" d="M25.45,13.31c-0.14-0.35-0.19-0.73-0.23-1.12c-0.01-0.1-0.02-0.2-0.03-0.29c0-0.09,0.01-0.1,0.08-0.05
					c0.23,0.17,0.46,0.33,0.68,0.51c0.24,0.2,0.45,0.44,0.62,0.71c0.26,0.43,0.31,0.88,0.23,1.35c-0.01,0.08-0.06,0.08-0.12,0.06
					C26.1,14.31,25.68,13.94,25.45,13.31z"/>
			</g>
		</g>
		<g>
			<g>
				<path class="st2" d="M27.6,14.12c-0.15,0.03-0.3,0.06-0.45,0.08c-0.09,0.01-0.1,0-0.12-0.09c-0.05-0.43-0.01-0.83,0.21-1.18
					c0.16-0.27,0.39-0.47,0.64-0.62c0.25-0.15,0.53-0.27,0.79-0.4c0.03-0.01,0.05-0.03,0.08-0.03c0.01,0,0.04,0.02,0.04,0.04
					c0.01,0.02,0,0.04-0.01,0.07c-0.07,0.43-0.17,0.84-0.34,1.23c-0.17,0.37-0.41,0.66-0.76,0.84c-0.03,0.02-0.07,0.03-0.1,0.04
					C27.59,14.1,27.59,14.11,27.6,14.12z"/>
			</g>
		</g>
		<g>
			<g>
				<path class="st2" d="M27.27,12.42c-0.06,0.02-0.15,0.04-0.24,0.06c-0.06,0.02-0.09-0.01-0.11-0.08
					c-0.17-0.67-0.03-1.24,0.41-1.7c0.26-0.27,0.56-0.48,0.88-0.66c0.05-0.03,0.1-0.06,0.15-0.09c0.04-0.02,0.07-0.01,0.07,0.05
					c-0.03,0.62-0.09,1.22-0.39,1.75C27.87,12.07,27.62,12.28,27.27,12.42z"/>
			</g>
		</g>
		<g>
			<g>
				<path class="st2" d="M24.86,5.34c0.17,0.44,0.17,0.87,0.01,1.29c-0.04,0.11-0.04,0.11-0.14,0.06c-0.37-0.17-0.66-0.43-0.86-0.81
					c-0.12-0.22-0.18-0.46-0.21-0.71c-0.06-0.43-0.04-0.85-0.01-1.27c0.01-0.08,0.02-0.09,0.08-0.03c0.38,0.35,0.74,0.72,1,1.18
					C24.77,5.14,24.81,5.24,24.86,5.34z"/>
			</g>
		</g>
		<g>
			<g>
				<path class="st2" d="M27.23,15.9c-0.24,0.1-0.49,0.12-0.74,0.08c-0.09-0.01-0.1-0.02-0.09-0.12c0.02-0.6,0.26-1.06,0.74-1.36
					c0.25-0.16,0.53-0.26,0.82-0.33c0.18-0.04,0.35-0.08,0.53-0.11c0.07-0.01,0.08,0,0.05,0.07c-0.18,0.49-0.38,0.97-0.72,1.35
					C27.66,15.67,27.47,15.82,27.23,15.9z"/>
			</g>
		</g>
		<g>
			<g>
				<path class="st2" d="M23.54,5.58c0.03,0.07,0.05,0.14,0.08,0.2c0.02,0.06,0.01,0.09-0.05,0.11c-0.18,0.06-0.36,0.08-0.55,0.07
					c-0.41-0.02-0.76-0.21-1.06-0.51c-0.28-0.27-0.5-0.59-0.7-0.92c-0.04-0.07-0.09-0.14-0.13-0.22c-0.03-0.06-0.02-0.09,0.04-0.08
					c0.55,0.04,1.09,0.11,1.6,0.4C23.13,4.86,23.39,5.17,23.54,5.58z"/>
			</g>
		</g>
	</g>
	<g>
		<g>
			<g>
				<path class="st2" d="M5.96,14.81c-0.17,0.49-0.17,0.94,0.01,1.38c0.03,0.06,0.05,0.07,0.11,0.04c0.44-0.22,0.78-0.56,0.96-1.06
					c0.09-0.25,0.13-0.51,0.13-0.77c0-0.33-0.02-0.66-0.04-0.99c0-0.09-0.02-0.09-0.09-0.03c-0.36,0.34-0.69,0.7-0.94,1.14
					C6.05,14.63,6,14.73,5.96,14.81z"/>
			</g>
		</g>
		<g>
			<g>
				<path class="st2" d="M7.07,15.71c-0.11,0.33-0.2,0.66-0.2,1c-0.01,0.44,0.14,0.81,0.4,1.12c0.06,0.07,0.07,0.07,0.14,0.01
					c0.43-0.42,0.65-0.93,0.6-1.54c-0.02-0.25-0.07-0.5-0.15-0.73c-0.08-0.23-0.18-0.46-0.27-0.69c-0.01-0.02-0.03-0.04-0.04-0.06
					c-0.02,0.02-0.04,0.03-0.05,0.05C7.35,15.16,7.21,15.44,7.07,15.71z"/>
			</g>
		</g>
		<g>
			<g>
				<path class="st2" d="M5.81,9.35C5.79,9.45,5.75,9.6,5.72,9.76c-0.02,0.1,0,0.11,0.09,0.12c0.58,0.05,1.07-0.15,1.47-0.64
					c0.24-0.29,0.41-0.62,0.56-0.97c0.05-0.12,0.11-0.24,0.16-0.36c0.03-0.07,0.01-0.08-0.05-0.07C7.46,7.96,6.99,8.11,6.55,8.4
					C6.23,8.62,5.98,8.91,5.81,9.35z"/>
			</g>
		</g>
		<g>
			<g>
				<path class="st2" d="M5.44,17.61c0.4,0.14,0.75,0.14,1.09,0.02c0.09-0.03,0.1-0.04,0.07-0.13c-0.1-0.44-0.31-0.8-0.68-1.03
					c-0.21-0.13-0.45-0.2-0.69-0.24c-0.33-0.05-0.67-0.06-1.02-0.04c-0.07,0-0.08,0.02-0.04,0.08c0.26,0.44,0.55,0.87,0.96,1.17
					C5.24,17.5,5.37,17.57,5.44,17.61z"/>
			</g>
		</g>
		<g>
			<g>
				<path class="st2" d="M5.65,6.9C5.52,7.25,5.46,7.6,5.52,7.96C5.55,8.19,5.64,8.4,5.76,8.6c0.06,0.1,0.06,0.1,0.17,0.02
					c0.49-0.37,0.75-0.86,0.77-1.48C6.7,6.74,6.63,6.37,6.54,6C6.52,5.9,6.49,5.8,6.46,5.71C6.44,5.62,6.42,5.62,6.37,5.69
					c-0.2,0.26-0.38,0.54-0.54,0.84C5.76,6.65,5.71,6.78,5.65,6.9z"/>
			</g>
		</g>
		<g>
			<g>
				<path class="st2" d="M7.35,7.64c0.47,0.15,0.92,0.08,1.34-0.21c0.1-0.07,0.19-0.14,0.28-0.22c0.3-0.27,0.54-0.59,0.78-0.91
					C9.81,6.22,9.8,6.21,9.73,6.2C9.24,6.18,8.75,6.19,8.27,6.36c-0.43,0.15-0.77,0.43-1,0.85C7.22,7.29,7.19,7.38,7.16,7.46
					C7.12,7.53,7.15,7.57,7.2,7.6C7.25,7.61,7.3,7.63,7.35,7.64z"/>
			</g>
		</g>
		<g>
			<g>
				<path class="st2" d="M7.2,9.69C6.88,9.84,6.59,10,6.31,10.2c-0.25,0.18-0.48,0.4-0.67,0.66c-0.26,0.38-0.35,0.8-0.31,1.24
					c0.01,0.07,0.02,0.09,0.09,0.08c0.61-0.09,1.06-0.42,1.36-1.02c0.22-0.44,0.31-0.9,0.4-1.37C7.19,9.77,7.19,9.74,7.2,9.69z"/>
			</g>
		</g>
		<g>
			<g>
				<path class="st2" d="M5.44,10.22C5.6,9.79,5.58,9.39,5.45,8.98C5.3,8.53,5.05,8.15,4.78,7.79C4.72,7.72,4.7,7.72,4.67,7.82
					C4.62,8,4.56,8.18,4.52,8.36C4.43,8.72,4.37,9.09,4.39,9.45c0.03,0.52,0.24,0.93,0.63,1.23c0.1,0.08,0.12,0.08,0.19-0.04
					C5.29,10.5,5.37,10.36,5.44,10.22z"/>
			</g>
		</g>
		<g>
			<g>
				<path class="st2" d="M6.55,13.31c0.14-0.35,0.19-0.73,0.23-1.12c0.01-0.1,0.02-0.2,0.03-0.29c0-0.09-0.01-0.1-0.08-0.05
					c-0.23,0.17-0.46,0.33-0.68,0.51c-0.24,0.2-0.45,0.44-0.62,0.71c-0.26,0.43-0.31,0.88-0.23,1.35c0.01,0.08,0.06,0.08,0.12,0.06
					C5.9,14.31,6.32,13.94,6.55,13.31z"/>
			</g>
		</g>
		<g>
			<g>
				<path class="st2" d="M4.4,14.12c0.15,0.03,0.3,0.06,0.45,0.08c0.09,0.01,0.1,0,0.12-0.09c0.05-0.43,0.01-0.83-0.21-1.18
					c-0.16-0.27-0.39-0.47-0.64-0.62c-0.25-0.15-0.53-0.27-0.79-0.4c-0.03-0.01-0.05-0.03-0.08-0.03c-0.01,0-0.04,0.02-0.04,0.04
					c-0.01,0.02,0,0.04,0.01,0.07c0.07,0.43,0.17,0.84,0.34,1.23c0.17,0.37,0.41,0.66,0.76,0.84c0.03,0.02,0.07,0.03,0.1,0.04
					C4.41,14.1,4.41,14.11,4.4,14.12z"/>
			</g>
		</g>
		<g>
			<g>
				<path class="st2" d="M4.73,12.42c0.06,0.02,0.15,0.04,0.24,0.06c0.06,0.02,0.09-0.01,0.11-0.08c0.17-0.67,0.03-1.24-0.41-1.7
					c-0.26-0.27-0.56-0.48-0.88-0.66c-0.05-0.03-0.1-0.06-0.15-0.09C3.6,9.94,3.57,9.95,3.57,10.01c0.03,0.62,0.09,1.22,0.39,1.75
					C4.13,12.07,4.38,12.28,4.73,12.42z"/>
			</g>
		</g>
		<g>
			<g>
				<path class="st2" d="M7.14,5.34C6.97,5.78,6.98,6.21,7.13,6.63c0.04,0.11,0.04,0.11,0.14,0.06c0.37-0.17,0.66-0.43,0.86-0.81
					c0.12-0.22,0.18-0.46,0.21-0.71C8.41,4.74,8.39,4.32,8.35,3.9C8.35,3.82,8.34,3.82,8.27,3.87c-0.38,0.35-0.74,0.72-1,1.18
					C7.23,5.14,7.19,5.24,7.14,5.34z"/>
			</g>
		</g>
		<g>
			<g>
				<path class="st2" d="M4.77,15.9C5,16,5.25,16.02,5.51,15.98c0.09-0.01,0.1-0.02,0.09-0.12c-0.02-0.6-0.26-1.06-0.74-1.36
					c-0.25-0.16-0.53-0.26-0.82-0.33c-0.18-0.04-0.35-0.08-0.53-0.11c-0.07-0.01-0.08,0-0.05,0.07c0.18,0.49,0.38,0.97,0.72,1.35
					C4.34,15.67,4.53,15.82,4.77,15.9z"/>
			</g>
		</g>
		<g>
			<g>
				<path class="st2" d="M8.46,5.58c-0.03,0.07-0.05,0.14-0.08,0.2C8.36,5.85,8.38,5.88,8.43,5.9c0.18,0.06,0.36,0.08,0.55,0.07
					c0.41-0.02,0.76-0.21,1.06-0.51c0.28-0.27,0.5-0.59,0.7-0.92c0.04-0.07,0.09-0.14,0.13-0.22c0.03-0.06,0.02-0.09-0.04-0.08
					c-0.55,0.04-1.09,0.11-1.6,0.4C8.87,4.86,8.61,5.17,8.46,5.58z"/>
			</g>
		</g>
	</g>
	<g>
		<g>
			<path class="st0" d="M16.01,11.6c-0.2,0-0.36-0.16-0.36-0.36V8.73c0-0.2,0.16-0.36,0.36-0.36c0.2,0,0.36,0.16,0.36,0.36v2.51
				C16.37,11.44,16.21,11.6,16.01,11.6z"/>
		</g>
	</g>
	<g>
		<g>
			<path class="st3" d="M17.34,3.52c0.19,0.08,0.39,0.16,0.95,0.23c0.25,0.03,0.47,0.04,0.68,0.03c-0.27-0.19-0.49-0.43-0.76-0.72
				l-0.1-0.11c-0.38-0.41-1.2-0.56-1.73-0.61v0.98C16.87,3.34,17.08,3.41,17.34,3.52z"/>
		</g>
		<g>
			<path class="st1" d="M20.49,3.48c-0.93-0.02-1.14-0.25-1.74-0.9l-0.11-0.11c-0.58-0.64-1.69-0.8-2.26-0.84v0.72
				c0.53,0.04,1.35,0.2,1.73,0.61l0.1,0.11c0.27,0.29,0.49,0.54,0.76,0.72c-0.21,0.01-0.44,0-0.68-0.03
				c-0.56-0.07-0.76-0.15-0.95-0.23c-0.26-0.11-0.47-0.18-0.96-0.2v0.72c0.38,0.02,0.51,0.08,0.69,0.15
				c0.22,0.09,0.48,0.2,1.14,0.28c1.42,0.18,2.39-0.29,2.43-0.31c0.15-0.07,0.23-0.24,0.19-0.4C20.79,3.6,20.65,3.48,20.49,3.48z"/>
		</g>
		<g>
			<path class="st0" d="M16.39,2.34V1.62c-0.2-0.01-0.34-0.02-0.36-0.02c-0.2,0-0.35,0.16-0.35,0.36v3.88c0,0.2,0.16,0.36,0.36,0.36
				c0.2,0,0.36-0.16,0.36-0.36V4.4V4.04V3.32V2.34z"/>
		</g>
	</g>
</g>
</svg>
